<svg width="42" height="42" viewBox="0 0 42 42" fill="none" xmlns="http://www.w3.org/2000/svg">
<path d="M21.125 0.5C9.72558 0.5 0.5 9.72461 0.5 21.125C0.5 32.5244 9.72461 41.75 21.125 41.75C32.5244 41.75 41.75 32.5254 41.75 21.125C41.75 9.72558 32.5254 0.5 21.125 0.5ZM21.125 39C11.2687 39 3.24997 30.9813 3.24997 21.125C3.24997 11.2687 11.2687 3.24997 21.125 3.24997C30.9813 3.24997 39 11.2687 39 21.125C39 30.9813 30.9813 39 21.125 39Z" fill="white"/>
<path d="M30.8286 17.3095H22.636V13.4488C22.636 12.3076 21.318 11.6605 20.4152 12.3647L10.5757 20.0409C9.86983 20.5916 9.87136 21.6597 10.5757 22.2091L20.4152 29.8853C21.314 30.5866 22.636 29.9486 22.636 28.8011V24.9405H30.8286C31.588 24.9405 32.2036 24.3249 32.2036 23.5654V18.6844C32.2036 17.9251 31.588 17.3095 30.8286 17.3095ZM29.4536 22.1906H21.261C20.5016 22.1906 19.8859 22.8062 19.8859 23.5656V25.9846L13.6569 21.125L19.886 16.2655V18.6845C19.886 19.4438 20.5016 20.0595 21.261 20.0595H29.4537L29.4536 22.1906Z" fill="white"/>
</svg>

