<svg width="20" height="35" viewBox="0 0 20 35" fill="none" xmlns="http://www.w3.org/2000/svg">
<path d="M19.3739 31.0619L18.1035 28.8386C17.7223 28.2669 17.0236 28.3939 16.706 28.7114C15.1815 30.2359 13.4664 30.6806 12.323 30.6806C9.40105 30.6806 9.147 28.3938 9.147 26.2341V11.9419H16.2613C16.7695 11.9419 17.2141 11.5609 17.2141 10.9257V8.70237C17.2141 8.06717 16.7695 7.62255 16.2613 7.62255H9.147V0.952862C9.147 0.381174 8.70238 0 8.1942 0H4.76408C4.19239 0 3.81128 0.381174 3.81128 0.952862V7.62255H0.889326C0.381147 7.62255 0 8.06717 0 8.70237V10.9257C0 11.5609 0.381147 11.9419 0.889326 11.9419H3.81128V27.314C3.87467 32.0145 5.97098 35 11.2432 35C14.6098 35 17.7223 33.6026 19.1833 32.2051C19.5645 31.824 19.5644 31.4429 19.3739 31.0617V31.0619Z" fill="black"/>
</svg>

