<svg width="31" height="55" viewBox="0 0 31 55" fill="none" xmlns="http://www.w3.org/2000/svg">
<path d="M30.251 48.8114L28.2673 45.3178C27.6722 44.4194 26.5812 44.619 26.0853 45.1179C23.7049 47.5136 21.0269 48.2123 19.2416 48.2123C14.6791 48.2123 14.2824 44.6188 14.2824 41.225V18.7659H25.3909C26.1844 18.7659 26.8787 18.167 26.8787 17.1689V13.6751C26.8787 12.677 26.1844 11.9783 25.3909 11.9783H14.2824V1.49735C14.2824 0.598987 13.5882 0 12.7947 0H7.43878C6.54613 0 5.95104 0.598987 5.95104 1.49735V11.9783H1.38862C0.595134 11.9783 0 12.677 0 13.6751V17.1689C0 18.167 0.595134 18.7659 1.38862 18.7659H5.95104V42.922C6.05003 50.3085 9.32327 55 17.5555 55C22.8122 55 27.6722 52.804 29.9534 50.608C30.5485 50.0091 30.5485 49.4102 30.251 48.8113V48.8114Z" fill="black"/>
</svg>

