<svg width="14" height="25" viewBox="0 0 14 25" fill="none" xmlns="http://www.w3.org/2000/svg">
<path class="button-icon" d="M13.8385 22.187L12.931 20.599C12.6588 20.1907 12.1597 20.2814 11.9329 20.5082C10.8439 21.5971 9.61886 21.9147 8.80217 21.9147C6.71504 21.9147 6.53357 20.2813 6.53357 18.7387V8.52996H11.6152C11.9782 8.52996 12.2958 8.25775 12.2958 7.80404V6.21598C12.2958 5.76227 11.9782 5.44468 11.6152 5.44468H6.53357V0.680616C6.53357 0.272267 6.21598 0 5.853 0H3.40291C2.99457 0 2.72234 0.272267 2.72234 0.680616V5.44468H0.635233C0.272248 5.44468 0 5.76227 0 6.21598V7.80404C0 8.25775 0.272248 8.52996 0.635233 8.52996H2.72234V19.51C2.76762 22.8675 4.26498 25 8.03087 25C10.4356 25 12.6588 24.0018 13.7024 23.0036C13.9746 22.7314 13.9746 22.4592 13.8385 22.187V22.187Z" fill="black"/>
</svg>

