<svg width="720" height="68" viewBox="0 0 720 68" fill="none" xmlns="http://www.w3.org/2000/svg">
<path d="M7.09692 43.1684L5.76304 45.6461L3 44.0262L7.00164 37.0696V11.4353C7.00164 8.0682 7.76386 5.2729 9.28829 3.04936C10.7492 1.01641 12.3689 0 14.1474 0C15.7989 0 17.2281 1.01641 18.4349 3.04936C19.6417 5.08232 20.2452 7.62348 20.2452 10.6729C20.2452 15.247 19.1971 20.0119 17.101 24.9672C15.8307 28.0166 13.5758 32.2413 10.3363 37.6413V56.605C10.4634 57.3038 10.8445 58.3838 11.4797 59.845C12.0513 60.6073 12.7818 60.9885 13.671 60.9885C15.6401 60.9885 17.101 60.1309 18.0538 58.4156L26.2476 44.0262L29.0107 45.6461L20.8168 59.9403C19.2289 62.7356 16.8469 64.1333 13.671 64.1333C11.5749 64.1333 9.92347 63.1803 8.71663 61.2744C7.70034 59.8132 7.19219 58.2568 7.19219 56.605L7.09692 43.1684ZM10.2411 11.4353V31.5425C14.8144 23.4107 17.101 16.4541 17.101 10.6729C17.101 8.44936 16.7199 6.57532 15.9577 5.05063C15.3225 3.78002 14.7191 3.14468 14.1474 3.14468C13.3852 3.14468 12.5912 3.84348 11.7655 5.24113C10.7492 6.8929 10.2411 8.95762 10.2411 11.4353Z" fill="#4C485A"/>
<path d="M53.7961 50.792C53.0339 54.5403 51.3824 57.6533 48.8417 60.131C46.1104 62.7357 42.9663 64.0381 39.4092 64.0381C35.2806 64.0381 31.9459 62.6086 29.4051 59.7497C26.9279 56.8909 25.6893 53.2062 25.6893 48.6956C25.6893 44.0579 27.1185 40.0873 29.9768 36.7838C32.8986 33.4802 36.4239 31.8285 40.5526 31.8285C41.5053 31.8285 42.4581 31.9237 43.4109 32.1142L42.7439 35.2589C42.1088 35.0684 41.3783 34.9732 40.5526 34.9732C37.2496 34.9732 34.4548 36.339 32.1682 39.0708C29.945 41.739 28.8335 44.9473 28.8335 48.6956C28.8335 52.6344 29.8815 55.6839 31.9776 57.8439C33.8832 59.8769 36.3604 60.8933 39.4092 60.8933C43.0933 60.8933 46.0786 59.2733 48.3653 56.0333C49.6992 54.1909 50.5249 52.0309 50.8425 49.5533C48.937 48.4097 47.3172 46.5991 45.9834 44.1214C44.6495 41.6437 43.9825 39.3567 43.9825 37.2603C43.9825 34.9097 44.8083 33.7343 46.4597 33.7343C48.2383 33.7343 49.9532 35.0685 51.6047 37.7367C53.4467 40.6591 54.3042 43.9626 54.1772 47.6473C55.6381 48.2826 57.1625 48.6002 58.7505 48.6002C62.8792 48.6002 65.8328 47.0756 67.6113 44.0262L70.3743 45.6462C67.9606 49.7121 64.1178 51.7451 58.8458 51.7451C56.8767 51.7451 55.1935 51.4273 53.7961 50.792ZM51.2236 46.0273C51.1601 44.185 50.5884 42.1838 49.5086 40.0238C48.4288 37.8003 47.6666 36.8473 47.222 37.1649C47.0314 37.2921 46.9361 37.5781 46.9361 38.0227C46.9361 39.0391 47.4125 40.4367 48.3653 42.2156C49.3181 43.9944 50.2708 45.265 51.2236 46.0273H51.2236Z" fill="#4C485A"/>
<path d="M80.5302 28.4932C81.737 30.4626 83.5156 32.5908 85.8657 34.8779C88.2159 37.1649 89.7403 38.9438 90.439 40.2144C91.7729 42.438 92.4398 45.2332 92.4398 48.6002C92.4398 52.3485 91.4871 55.6204 89.5815 58.4157C95.9969 55.6839 101.142 50.8874 105.016 44.0262L107.684 45.6462C101.904 55.938 93.4244 62.0051 82.2452 63.8474C81.1019 64.0379 80.2761 64.1331 79.768 64.1331C74.496 64.1331 70.7484 61.3696 68.5253 55.8425L71.193 54.3178C71.5106 55.0166 71.86 55.6519 72.2411 56.2236C73.1303 57.6848 74.2101 58.8602 75.4805 59.7496C76.7509 60.5755 78.0848 60.9885 79.4822 60.9885C79.9903 60.9885 80.689 60.9249 81.5783 60.7977C83.6108 60.2259 85.2941 59.0188 86.6279 57.1764C88.4064 54.7623 89.2957 51.9034 89.2957 48.5999C89.2957 46.0587 88.9464 44.0893 88.2477 42.6916C87.549 41.294 86.1198 39.5787 83.9602 37.5457C81.8641 35.4492 80.0538 33.3845 78.5294 31.3515L70.3355 45.6458L67.5725 44.0258L76.6238 28.4928L80.5302 28.4932Z" fill="#4C485A"/>
<path d="M157.298 0.381104H160.443V56.605C160.57 57.3038 160.951 58.3838 161.586 59.845C162.158 60.6073 162.888 60.9885 163.777 60.9885C165.746 60.9885 167.207 60.1309 168.16 58.4156L176.354 44.0261L179.117 45.6461L170.923 59.9403C169.335 62.7356 166.953 64.1333 163.777 64.1333C161.681 64.1333 159.998 63.1802 158.728 61.2743C157.711 59.7496 157.235 58.1932 157.298 56.605C153.805 61.6238 149.454 64.1333 144.245 64.1333C140.561 64.1333 137.449 62.7674 134.908 60.0356C132.431 57.3038 131.193 53.9367 131.193 49.9343C131.193 44.9155 132.907 40.5954 136.337 36.9742C139.577 33.4801 143.261 31.7331 147.39 31.7331C151.709 31.7331 155.012 33.3213 157.298 36.4978V0.381104ZM147.294 34.7825C143.991 34.7825 140.911 36.4342 138.052 39.7378C135.639 42.5331 134.432 45.8049 134.432 49.5532C134.432 52.9203 135.321 55.6838 137.1 57.8438C138.878 59.9403 141.133 60.9885 143.864 60.9885C147.485 60.9885 150.724 59.4637 153.583 56.4143C156.06 53.7461 157.298 50.9191 157.298 47.9332C157.298 39.1661 153.964 34.7825 147.294 34.7825Z" fill="#4C485A"/>
<path d="M178.816 48.6002C178.753 52.2214 179.674 55.1756 181.579 57.4626C183.548 59.7497 186.184 60.8933 189.487 60.8933C192.663 60.8933 196.284 59.4003 200.349 56.4144C203.906 53.8732 206.732 51.0462 208.828 47.9333L211.496 44.0262L214.259 45.6462C213.624 46.5992 212.671 47.965 211.401 49.7438C208.987 53.0473 205.97 56.065 202.35 58.7968C197.649 62.291 193.362 64.0381 189.487 64.0381C185.295 64.0381 181.928 62.5768 179.388 59.6544C176.847 56.732 175.577 53.1427 175.577 48.8862C175.577 44.6297 176.942 40.7226 179.674 37.1649C182.405 33.6073 185.613 31.8285 189.297 31.8285C197.046 31.8285 200.889 34.7825 200.825 40.6908C200.825 43.8672 199.523 46.2815 196.919 47.9333C194.696 49.3309 191.806 50.0297 188.249 50.0297C186.915 50.0297 183.77 49.5532 178.816 48.6002ZM179.007 45.5509C179.324 45.6145 180.944 45.8685 183.866 46.3132C185.771 46.6308 187.391 46.7897 188.725 46.7897C194.569 46.7897 197.554 44.7567 197.681 40.6908C197.745 38.7849 197.205 37.3873 196.061 36.4979C194.664 35.4179 192.409 34.9414 189.297 35.0685C187.264 35.1321 185.168 36.2756 183.008 38.4991C180.912 40.7227 179.578 43.0732 179.007 45.5509Z" fill="#4C485A"/>
<path d="M218.85 11.34V31.3519C223.487 23.0295 225.774 16.1365 225.71 10.6729C225.71 8.38583 225.329 6.51179 224.567 5.05063C223.932 3.78002 223.296 3.14468 222.661 3.14468C221.899 3.14468 221.137 3.84348 220.375 5.24113C219.358 6.8929 218.85 8.92584 218.85 11.34ZM230.665 35.8307C230.665 37.9272 231.427 39.8013 232.951 41.4531C234.539 43.1049 236.349 44.5026 238.382 45.6461C238.001 42.7238 236.953 40.1508 235.238 37.9273C233.65 35.8943 232.348 34.8778 231.332 34.8778C230.887 34.8778 230.665 35.1954 230.665 35.8307ZM254.96 44.0262L257.628 45.6461C255.405 49.3309 251.911 51.1732 247.148 51.1732C245.877 51.1732 244.512 51.0462 243.051 50.7921C242.415 50.6649 241.907 50.5379 241.526 50.411C241.018 54.2227 239.589 57.4309 237.239 60.0356C234.889 62.6403 232.125 63.9427 228.95 63.9427C225.393 63.9427 222.312 62.3863 219.708 59.2734C217.167 56.1604 215.865 52.3487 215.801 47.838L215.706 42.8826L214.182 45.6461L211.419 44.0262L215.706 36.6886V11.3401C215.706 8.03655 216.468 5.27303 217.993 3.04949C219.327 1.01654 220.883 0 222.661 0C224.313 0 225.742 1.01654 226.949 3.04949C228.156 5.08245 228.759 7.59193 228.759 10.5778C228.759 15.152 227.711 19.8849 225.615 24.7767C224.408 27.7626 222.185 31.9555 218.945 37.3555V47.838C218.945 51.2687 219.898 54.2862 221.804 56.8909C223.709 59.4957 226.091 60.798 228.95 60.798C231.236 60.798 233.237 59.8133 234.952 57.8439C236.985 55.5568 238.16 52.698 238.477 49.2674C234.984 47.6156 232.411 45.7415 230.76 43.645C228.6 40.9132 227.52 38.3085 227.52 35.8308C227.52 33.0355 228.664 31.6379 230.95 31.6379C233.11 31.6379 235.27 33.0673 237.429 35.9262C239.779 39.0391 241.177 42.7874 241.621 47.171C242.13 47.2981 242.86 47.4887 243.813 47.7427C245.147 47.9332 246.322 48.0284 247.338 48.0284C250.768 48.0284 253.309 46.6943 254.96 44.026L254.96 44.0262Z" fill="#4C485A"/>
<path d="M257.345 48.6002C257.282 52.2214 258.203 55.1756 260.108 57.4626C262.077 59.7497 264.713 60.8933 268.016 60.8933C271.192 60.8933 274.813 59.4003 278.878 56.4144C282.435 53.8732 285.262 51.0462 287.358 47.9333L290.025 44.0262L292.788 45.6462C292.153 46.5992 291.201 47.965 289.93 49.7438C287.516 53.0473 284.499 56.065 280.879 58.7968C276.178 62.291 271.891 64.0381 268.016 64.0381C263.824 64.0381 260.458 62.5768 257.917 59.6544C255.376 56.732 254.106 53.1427 254.106 48.8862C254.106 44.6297 255.472 40.7226 258.203 37.1649C260.934 33.6073 264.142 31.8285 267.826 31.8285C275.575 31.8285 279.418 34.7825 279.354 40.6908C279.354 43.8672 278.052 46.2815 275.448 47.9333C273.225 49.3309 270.335 50.0297 266.778 50.0297C265.444 50.0297 262.3 49.5532 257.345 48.6002ZM257.536 45.5509C257.854 45.6145 259.473 45.8685 262.395 46.3132C264.301 46.6308 265.92 46.7897 267.254 46.7897C273.098 46.7897 276.083 44.7567 276.21 40.6908C276.274 38.7849 275.734 37.3873 274.591 36.4979C273.193 35.4179 270.938 34.9414 267.826 35.0685C265.793 35.1321 263.697 36.2756 261.538 38.4991C259.441 40.7227 258.108 43.0732 257.536 45.5509Z" fill="#4C485A"/>
<path d="M328.631 44.0262L331.298 45.6462L323.486 59.2733C321.707 62.3862 319.42 63.9428 316.626 63.9428C314.593 63.9428 312.846 63.1804 311.385 61.6557C309.924 60.131 309.162 58.1933 309.099 55.8427L310.814 38.6896C310.877 37.8002 310.623 37.0062 310.051 36.3074C309.48 35.6085 308.749 35.259 307.86 35.259H303.001C301.095 35.259 299.698 34.6872 298.809 33.5437C298.682 34.8143 297.824 36.8156 296.236 39.5474L292.711 45.6462L289.948 44.0262L293.473 38.0227C295.506 34.5921 296.522 31.8284 296.522 29.7319H299.762C300.27 31.3202 301.35 32.1143 303.001 32.1143H307.574C309.099 31.8602 310.591 32.4002 312.052 33.7343C313.513 35.4496 314.148 37.2284 313.958 39.0708L312.338 56.1286C312.338 57.3992 312.751 58.511 313.577 59.4639C314.466 60.3533 315.482 60.7981 316.626 60.7981C318.15 60.7981 319.547 59.718 320.818 57.558L328.631 44.0262Z" fill="#4C485A"/>
<path d="M331.036 48.6002C330.973 52.2214 331.894 55.1756 333.799 57.4626C335.768 59.7497 338.404 60.8933 341.707 60.8933C344.883 60.8933 348.504 59.4003 352.569 56.4144C356.126 53.8732 358.953 51.0462 361.049 47.9333L363.716 44.0262L366.479 45.6462C365.844 46.5992 364.891 47.965 363.621 49.7438C361.207 53.0473 358.19 56.065 354.57 58.7968C349.869 62.291 345.582 64.0381 341.707 64.0381C337.515 64.0381 334.149 62.5768 331.608 59.6544C329.067 56.732 327.797 53.1427 327.797 48.8862C327.797 44.6297 329.163 40.7226 331.894 37.1649C334.625 33.6073 337.833 31.8285 341.517 31.8285C349.266 31.8285 353.109 34.7825 353.045 40.6908C353.045 43.8672 351.743 46.2815 349.139 47.9333C346.916 49.3309 344.026 50.0297 340.469 50.0297C339.135 50.0297 335.991 49.5532 331.036 48.6002ZM331.227 45.5509C331.544 45.6145 333.164 45.8685 336.086 46.3132C337.992 46.6308 339.611 46.7897 340.945 46.7897C346.789 46.7897 349.774 44.7567 349.901 40.6908C349.965 38.7849 349.425 37.3873 348.281 36.4979C346.884 35.4179 344.629 34.9414 341.517 35.0685C339.484 35.1321 337.388 36.2756 335.228 38.4991C333.132 40.7227 331.799 43.0732 331.227 45.5509Z" fill="#4C485A"/>
<path d="M376.597 28.4932C377.804 30.4626 379.582 32.5908 381.932 34.8779C384.282 37.1649 385.807 38.9438 386.506 40.2144C387.839 42.438 388.506 45.2332 388.506 48.6002C388.506 52.3485 387.554 55.6204 385.648 58.4157C392.063 55.6839 397.208 50.8874 401.083 44.0262L403.751 45.6462C397.971 55.938 389.491 62.0051 378.312 63.8474C377.168 64.0379 376.343 64.1331 375.835 64.1331C370.562 64.1331 366.815 61.3696 364.592 55.8425L367.26 54.3178C367.577 55.0166 367.926 55.6519 368.308 56.2236C369.197 57.6848 370.277 58.8602 371.547 59.7496C372.817 60.5755 374.151 60.9885 375.549 60.9885C376.057 60.9885 376.756 60.9249 377.645 60.7977C379.677 60.2259 381.361 59.0188 382.694 57.1764C384.473 54.7623 385.362 51.9034 385.362 48.5999C385.362 46.0587 385.013 44.0893 384.314 42.6916C383.615 41.294 382.186 39.5787 380.027 37.5457C377.931 35.4492 376.12 33.3845 374.596 31.3515L366.402 45.6458L363.639 44.0258L372.69 28.4928L376.597 28.4932Z" fill="#4C485A"/>
<path d="M453.364 0.381104H456.509V56.605C456.636 57.3038 457.017 58.3838 457.652 59.845C458.224 60.6073 458.954 60.9885 459.843 60.9885C461.812 60.9885 463.273 60.1309 464.226 58.4156L472.42 44.0261L475.183 45.6461L466.989 59.9403C465.401 62.7356 463.019 64.1333 459.843 64.1333C457.747 64.1333 456.064 63.1802 454.794 61.2743C453.777 59.7496 453.301 58.1932 453.364 56.605C449.871 61.6238 445.52 64.1333 440.312 64.1333C436.628 64.1333 433.515 62.7674 430.974 60.0356C428.497 57.3038 427.259 53.9367 427.259 49.9343C427.259 44.9155 428.974 40.5954 432.404 36.9742C435.643 33.4801 439.327 31.7331 443.456 31.7331C447.775 31.7331 451.078 33.3213 453.364 36.4978V0.381104ZM443.36 34.7825C440.057 34.7825 436.977 36.4342 434.119 39.7378C431.705 42.5331 430.498 45.8049 430.498 49.5532C430.498 52.9203 431.387 55.6838 433.166 57.8438C434.944 59.9403 437.199 60.9885 439.93 60.9885C443.551 60.9885 446.79 59.4637 449.649 56.4143C452.126 53.7461 453.364 50.9191 453.364 47.9332C453.364 39.1661 450.03 34.7825 443.36 34.7825Z" fill="#4C485A"/>
<path d="M474.883 48.6002C474.819 52.2214 475.74 55.1756 477.646 57.4626C479.615 59.7497 482.251 60.8933 485.554 60.8933C488.729 60.8933 492.35 59.4003 496.415 56.4144C499.972 53.8732 502.799 51.0462 504.895 47.9333L507.563 44.0262L510.326 45.6462C509.69 46.5992 508.738 47.965 507.467 49.7438C505.054 53.0473 502.037 56.065 498.416 58.7968C493.716 62.291 489.428 64.0381 485.554 64.0381C481.361 64.0381 477.995 62.5768 475.454 59.6544C472.913 56.732 471.643 53.1427 471.643 48.8862C471.643 44.6297 473.009 40.7226 475.74 37.1649C478.471 33.6073 481.679 31.8285 485.363 31.8285C493.112 31.8285 496.955 34.7825 496.892 40.6908C496.892 43.8672 495.589 46.2815 492.985 47.9333C490.762 49.3309 487.872 50.0297 484.315 50.0297C482.981 50.0297 479.837 49.5532 474.883 48.6002ZM475.073 45.5509C475.391 45.6145 477.011 45.8685 479.932 46.3132C481.838 46.6308 483.458 46.7897 484.792 46.7897C490.635 46.7897 493.621 44.7567 493.748 40.6908C493.811 38.7849 493.271 37.3873 492.128 36.4979C490.73 35.4179 488.476 34.9414 485.363 35.0685C483.331 35.1321 481.235 36.2756 479.075 38.4991C476.979 40.7227 475.645 43.0732 475.073 45.5509Z" fill="#4C485A"/>
<path d="M536.369 0.285889H545.897V3.52588H542.752V60.7028H545.992V63.8475H536.369V60.7028H539.513V3.52588H536.369V0.285889Z" fill="#4C485A"/>
<path d="M589.34 44.0262L592.008 45.6462L584.195 59.2733C582.417 62.3862 580.13 63.9428 577.335 63.9428C575.303 63.9428 573.556 63.1804 572.095 61.6557C570.634 60.131 569.872 58.1933 569.808 55.8427L571.523 38.6896C571.587 37.8002 571.333 37.0062 570.761 36.3074C570.189 35.6085 569.459 35.259 568.57 35.259H563.711C561.805 35.259 560.408 34.6872 559.518 33.5437C559.391 34.8143 558.534 36.8156 556.946 39.5474L553.421 45.6462L550.657 44.0262L554.183 38.0227C556.215 34.5921 557.232 31.8284 557.232 29.7319H560.471C560.979 31.3202 562.059 32.1143 563.711 32.1143H568.284C569.808 31.8602 571.301 32.4002 572.762 33.7343C574.223 35.4496 574.858 37.2284 574.667 39.0708L573.048 56.1286C573.048 57.3992 573.461 58.511 574.286 59.4639C575.176 60.3533 576.192 60.7981 577.335 60.7981C578.86 60.7981 580.257 59.718 581.527 57.558L589.34 44.0262Z" fill="#4C485A"/>
<path d="M591.746 48.6002C591.682 52.2214 592.603 55.1756 594.509 57.4626C596.478 59.7497 599.114 60.8933 602.417 60.8933C605.593 60.8933 609.213 59.4003 613.278 56.4144C616.835 53.8732 619.662 51.0462 621.758 47.9333L624.426 44.0262L627.189 45.6462C626.554 46.5992 625.601 47.965 624.331 49.7438C621.917 53.0473 618.9 56.065 615.279 58.7968C610.579 62.291 606.291 64.0381 602.417 64.0381C598.225 64.0381 594.858 62.5768 592.317 59.6544C589.777 56.732 588.506 53.1427 588.506 48.8862C588.506 44.6297 589.872 40.7226 592.603 37.1649C595.335 33.6073 598.542 31.8285 602.226 31.8285C609.975 31.8285 613.818 34.7825 613.755 40.6908C613.755 43.8672 612.453 46.2815 609.848 47.9333C607.625 49.3309 604.735 50.0297 601.178 50.0297C599.844 50.0297 596.7 49.5532 591.746 48.6002ZM591.936 45.5509C592.254 45.6145 593.874 45.8685 596.796 46.3132C598.701 46.6308 600.321 46.7897 601.655 46.7897C607.498 46.7897 610.484 44.7567 610.611 40.6908C610.674 38.7849 610.135 37.3873 608.991 36.4979C607.594 35.4179 605.339 34.9414 602.226 35.0685C600.194 35.1321 598.098 36.2756 595.938 38.4991C593.842 40.7227 592.508 43.0732 591.936 45.5509Z" fill="#4C485A"/>
<path d="M661.03 44.0262C661.03 41.2944 660.3 39.1343 658.839 37.5461C657.378 35.9578 655.695 35.1637 653.789 35.1637C650.486 35.1637 647.406 37.4508 644.547 42.0249C643.213 44.1214 642.388 46.4721 642.07 49.0768V63.8474H638.926V40.0238C639.053 38.4991 638.831 37.292 638.259 36.4025C637.687 35.4496 636.989 34.9732 636.163 34.9732C634.956 34.9732 634.13 35.132 633.686 35.4496C633.241 35.7037 632.606 36.3707 631.78 37.4508L627.112 45.6462L624.349 44.0262L629.303 35.4496C631.209 33.0355 633.495 31.8285 636.163 31.8285C638.068 31.8285 639.561 32.6861 640.641 34.4014C641.784 36.0532 642.197 38.0543 641.88 40.4049C645.5 34.7508 649.47 31.9237 653.789 31.9237C656.52 31.9237 658.902 32.972 660.935 35.0685C663.158 37.3556 664.27 40.3415 664.27 44.0262V56.5097C664.27 57.3991 664.524 58.2885 665.032 59.1779C665.667 60.385 666.524 60.9886 667.604 60.9886C669.51 60.9886 670.971 60.0992 671.987 58.3204L680.181 44.0262L682.944 45.6462L674.75 59.9404C673.162 62.7357 670.78 64.1334 667.604 64.1334C665.508 64.1334 663.825 63.1803 662.555 61.2744C661.538 59.6862 661.03 58.098 661.03 56.5097V44.0262Z" fill="#4C485A"/>
<path d="M682.557 48.6002C682.493 52.2214 683.414 55.1756 685.32 57.4626C687.289 59.7497 689.925 60.8933 693.228 60.8933C696.404 60.8933 700.024 59.4003 704.09 56.4144C707.647 53.8732 710.473 51.0462 712.569 47.9333L715.237 44.0262L718 45.6462C717.365 46.5992 716.412 47.965 715.142 49.7438C712.728 53.0473 709.711 56.065 706.09 58.7968C701.39 62.291 697.103 64.0381 693.228 64.0381C689.036 64.0381 685.669 62.5768 683.129 59.6544C680.588 56.732 679.318 53.1427 679.318 48.8862C679.318 44.6297 680.683 40.7226 683.414 37.1649C686.146 33.6073 689.353 31.8285 693.037 31.8285C700.787 31.8285 704.629 34.7825 704.566 40.6908C704.566 43.8672 703.264 46.2815 700.66 47.9333C698.436 49.3309 695.546 50.0297 691.989 50.0297C690.655 50.0297 687.511 49.5532 682.557 48.6002ZM682.748 45.5509C683.065 45.6145 684.685 45.8685 687.607 46.3132C689.512 46.6308 691.132 46.7897 692.466 46.7897C698.31 46.7897 701.295 44.7567 701.422 40.6908C701.486 38.7849 700.946 37.3873 699.802 36.4979C698.405 35.4179 696.15 34.9414 693.038 35.0685C691.005 35.1321 688.909 36.2756 686.749 38.4991C684.653 40.7227 683.319 43.0732 682.748 45.5509Z" fill="#4C485A"/>
<path d="M1.5 25.5001L718.5 25.5M1.5 66.5001L718.5 66.5" stroke="#54C6EB" stroke-width="3" stroke-linecap="round"/>
</svg>
