<svg width="30" height="30" viewBox="0 0 30 30" fill="none" xmlns="http://www.w3.org/2000/svg">
<path d="M29.5317 13.1227C29.2903 12.9711 27.3982 11.8377 26.6462 11.4937L25.7144 9.24412C25.9913 8.50027 26.5202 6.41357 26.6029 6.05181C26.6795 5.71642 26.5784 5.36521 26.3351 5.12192L24.878 3.66487C24.6348 3.42159 24.2835 3.32046 23.9481 3.3971C23.6738 3.45985 21.5326 3.99651 20.7558 4.28561L18.5063 3.3538C18.1771 2.63426 17.0774 0.786974 16.8772 0.468282C16.6944 0.176895 16.3744 0 16.0304 0H13.9696C13.6256 0 13.3056 0.176895 13.1227 0.468282C12.9711 0.709747 11.8377 2.6018 11.4937 3.3538L9.24416 4.28561C8.50031 4.00876 6.41361 3.47983 6.05186 3.3971C5.71646 3.32051 5.36525 3.42165 5.12197 3.66487L3.66486 5.12198C3.42158 5.36526 3.32045 5.71648 3.39709 6.05187C3.45984 6.3262 3.9965 8.46746 4.28561 9.24418L3.35379 11.4937C2.63426 11.8229 0.786973 12.9226 0.468281 13.1227C0.176895 13.3056 0 13.6255 0 13.9696V16.0303C0 16.3744 0.176895 16.6943 0.468281 16.8773C0.709746 17.0288 2.6018 18.1623 3.35379 18.5063L4.28561 20.7558C4.00875 21.4997 3.47982 23.5864 3.39709 23.9481C3.32051 24.2835 3.42158 24.6347 3.66486 24.878L5.12197 26.3351C5.36525 26.5784 5.71658 26.6796 6.05186 26.6029C6.32619 26.5401 8.46744 26.0035 9.24416 25.7144L11.4937 26.6462C11.8229 27.3657 12.9226 29.213 13.1227 29.5317C13.3056 29.8231 13.6256 30 13.9696 30H16.0304C16.3744 30 16.6944 29.8231 16.8773 29.5317C17.0289 29.2903 18.1623 27.3982 18.5063 26.6462L20.7558 25.7144C21.4997 25.9912 23.5864 26.5202 23.9481 26.6029C24.2837 26.6797 24.6348 26.5784 24.878 26.3351L26.3351 24.878C26.5784 24.6347 26.6796 24.2835 26.6029 23.9481C26.5402 23.6738 26.0035 21.5325 25.7144 20.7558L26.6462 18.5063C27.3657 18.1771 29.213 17.0774 29.5317 16.8773C29.8231 16.6943 30 16.3744 30 16.0303V13.9696C30 13.6255 29.8231 13.3056 29.5317 13.1227ZM28.0001 15.4667C27.2878 15.89 26.1019 16.5719 25.7302 16.7263C25.3975 16.781 25.1042 17.0026 24.9684 17.3305L23.6967 20.4009C23.5609 20.7286 23.6116 21.0927 23.808 21.3667C23.962 21.7391 24.3181 23.0595 24.5224 23.8624L23.8623 24.5225C23.0595 24.3182 21.7391 23.9621 21.3667 23.8081C21.0928 23.6116 20.7285 23.5609 20.4008 23.6967L17.3305 24.9685C17.0027 25.1043 16.7811 25.3976 16.7262 25.7302C16.572 26.102 15.89 27.2877 15.4667 28.0001H14.5332C14.1099 27.2877 13.428 26.102 13.2737 25.7302C13.2189 25.3975 12.9973 25.1042 12.6694 24.9685L9.599 23.6967C9.27123 23.5609 8.90713 23.6116 8.6332 23.8081C8.26096 23.9621 6.94049 24.3181 6.13752 24.5225L5.4774 23.8624C5.68172 23.0596 6.03785 21.7391 6.19178 21.3667C6.38824 21.0927 6.43893 20.7286 6.30316 20.4009L5.03139 17.3305C4.89557 17.0027 4.6023 16.7811 4.26967 16.7263C3.89807 16.572 2.71242 15.89 1.99998 15.4667V14.5332C2.71236 14.1099 3.89807 13.428 4.26984 13.2737C4.60254 13.2189 4.8958 12.9973 5.03156 12.6695L6.30334 9.59908C6.43904 9.27131 6.38842 8.9072 6.19195 8.63322C6.03797 8.2608 5.68189 6.94044 5.47758 6.13759L6.1377 5.47747C6.94049 5.68179 8.2609 6.03786 8.63332 6.19185C8.90725 6.38831 9.27135 6.439 9.59918 6.30323L12.6696 5.03146C12.9973 4.89563 13.2189 4.60237 13.2738 4.26973C13.428 3.89807 14.11 2.71243 14.5332 1.99998H15.4668C15.89 2.71237 16.572 3.89807 16.7263 4.26985C16.7811 4.60255 17.0027 4.89581 17.3305 5.03157L20.4009 6.30335C20.7287 6.43906 21.0928 6.38849 21.3667 6.19197C21.7389 6.03798 23.0594 5.68196 23.8624 5.47759L24.5225 6.13771C24.3182 6.9405 23.962 8.26091 23.8081 8.63334C23.6116 8.90732 23.561 9.27142 23.6967 9.5992L24.9685 12.6696C25.1043 12.9973 25.3976 13.219 25.7302 13.2738C26.102 13.4281 27.2877 14.11 28.0001 14.5333L28.0001 15.4667Z" fill="white"/>
<path d="M15 8.46067C11.3942 8.46067 8.46067 11.3942 8.46067 15C8.46067 18.6058 11.3942 21.5393 15 21.5393C18.6058 21.5393 21.5394 18.6058 21.5394 15C21.5394 11.3942 18.6058 8.46067 15 8.46067ZM15 19.5394C12.497 19.5394 10.4607 17.503 10.4607 15C10.4607 12.497 12.497 10.4607 15 10.4607C17.503 10.4607 19.5393 12.497 19.5393 15C19.5393 17.503 17.503 19.5394 15 19.5394Z" fill="white"/>
</svg>
